<?xml version="1.0" encoding="iso-8859-1"?>
<!-- Generator: Adobe Illustrator 16.0.0, SVG Export Plug-In . SVG Version: 6.00 Build 0)  -->
<!DOCTYPE svg PUBLIC "-//W3C//DTD SVG 1.1//EN" "http://www.w3.org/Graphics/SVG/1.1/DTD/svg11.dtd">
<svg version="1.1" id="Capa_1" xmlns="http://www.w3.org/2000/svg" xmlns:xlink="http://www.w3.org/1999/xlink" x="0px" y="0px"
	 width="31.688px" height="31.688px" viewBox="0 0 31.688 31.688" style="enable-background:new 0 0 31.688 31.688;"
	 xml:space="preserve">
<g>
	<g>
		<path d="M21.235,4.034c-0.229,0-0.416,0.186-0.416,0.416v2.776c0,0.23,0.188,0.416,0.416,0.416h1.354v0.47h-0.519
			c-0.209,0-0.379,0.169-0.379,0.377v0.25h2.488v-0.25c0-0.208-0.17-0.377-0.379-0.377h-0.451v-0.47h1.441
			c0.229,0,0.416-0.186,0.416-0.416V4.45c0-0.23-0.188-0.416-0.416-0.416H21.235z M24.606,7.014h-3.184V4.661h3.184V7.014z"/>
		<path d="M9.272,8.739c0.172,0,0.319-0.143,0.319-0.313V4.085c0-0.172-0.147-0.321-0.319-0.321H6.793
			c-0.172,0-0.314,0.149-0.314,0.321v4.341c0,0.171,0.143,0.313,0.314,0.313h0.008h2.464H9.272z M8.966,7.484h-1.86V4.393h1.86
			V7.484z"/>
		<path d="M14.35,4.347h3.101c0.172,0,0.299-0.137,0.299-0.309v-3.72C17.749,0.146,17.622,0,17.45,0H14.35
			c-0.172,0-0.319,0.146-0.319,0.318v2.824v0.897v0.062h0.015C14.076,4.235,14.2,4.347,14.35,4.347z M14.657,0.627h2.489v2.51
			h-2.489V0.627z"/>
		<circle cx="15.631" cy="8.336" r="2.689"/>
		<path d="M22.659,13.648l-2.139,1.899l-2.666-3.278l-2.205,2.874l-2.205-2.874l-2.666,3.278l-2.138-1.899
			c-0.452-0.4-1.14-0.358-1.539,0.091c-0.398,0.449-0.36,1.139,0.09,1.537l2.987,2.658c0.2,0.178,0.457,0.272,0.721,0.272
			c0.029,0,0.055,0,0.083-0.005c0.299-0.022,0.562-0.166,0.75-0.396l1.176-1.47v4.051c0,0.507,0.18,0.979,0.359,1.388v8.824
			c0,0.604,0.519,1.09,1.119,1.09c0.603,0,1.123-0.486,1.123-1.09v-7.492h0.357v7.492c0,0.604,0.52,1.09,1.121,1.09
			c0.6,0,1.119-0.486,1.119-1.09v-8.824c0.18-0.406,0.359-0.879,0.359-1.388v-4.051l1.139,1.469
			c0.188,0.229,0.434,0.375,0.729,0.397c0.027,0.005,0.043,0.005,0.072,0.005c0.268,0,0.518-0.097,0.717-0.272l2.985-2.658
			c0.449-0.398,0.486-1.088,0.089-1.537C23.799,13.289,23.11,13.248,22.659,13.648z"/>
		<path d="M16.948,11.317l-0.637,0.268c-0.131-0.225-0.371-0.378-0.649-0.378c-0.277,0-0.517,0.151-0.649,0.373l-0.637-0.273
			c-0.093-0.04-0.197-0.031-0.281,0.025c-0.085,0.056-0.133,0.15-0.133,0.252v0.794c0,0.096,0.043,0.186,0.12,0.243
			c0.075,0.057,0.173,0.074,0.265,0.046c0.25-0.077,0.559-0.171,0.736-0.226c0.139,0.167,0.345,0.276,0.579,0.276
			c0.228,0,0.431-0.103,0.565-0.261c0.181,0.055,0.498,0.15,0.752,0.227c0.092,0.027,0.189,0.009,0.268-0.047
			c0.076-0.057,0.121-0.147,0.121-0.242v-0.8c0-0.101-0.051-0.195-0.135-0.251C17.149,11.287,17.042,11.277,16.948,11.317z"/>
		<path d="M10.266,4.133c0.869-0.865,1.918-1.546,3.093-1.974v-0.65c-1.242,0.418-2.363,1.098-3.302,1.97
			c0.133,0.174,0.209,0.388,0.209,0.606V4.133z"/>
		<path d="M22.325,3.361c-1.1-0.98-2.43-1.704-3.903-2.065v0.635c1.077,0.284,2.071,0.778,2.938,1.431L22.325,3.361L22.325,3.361z"
			/>
	</g>
</g>
<g>
</g>
<g>
</g>
<g>
</g>
<g>
</g>
<g>
</g>
<g>
</g>
<g>
</g>
<g>
</g>
<g>
</g>
<g>
</g>
<g>
</g>
<g>
</g>
<g>
</g>
<g>
</g>
<g>
</g>
</svg>
